<?xml version="1.0" encoding="UTF-8" standalone="no"?>
<!-- Created with Inkscape (http://www.inkscape.org/) -->

<svg
   width="1024"
   height="512"
   viewBox="0 0 1024 512"
   version="1.1"
   id="svg1"
   sodipodi:docname="Kaake_fi_logo.svg"
   inkscape:version="1.3.2 (091e20e, 2023-11-25, custom)"
   inkscape:export-filename="Kaake_fi_logo_transparent.png"
   inkscape:export-xdpi="96"
   inkscape:export-ydpi="96"
   xmlns:inkscape="http://www.inkscape.org/namespaces/inkscape"
   xmlns:sodipodi="http://sodipodi.sourceforge.net/DTD/sodipodi-0.dtd"
   xmlns:xlink="http://www.w3.org/1999/xlink"
   xmlns="http://www.w3.org/2000/svg"
   xmlns:svg="http://www.w3.org/2000/svg">
  <sodipodi:namedview
     id="namedview1"
     pagecolor="#ffffff"
     bordercolor="#000000"
     borderopacity="0.25"
     inkscape:showpageshadow="2"
     inkscape:pageopacity="0.0"
     inkscape:pagecheckerboard="0"
     inkscape:deskcolor="#d1d1d1"
     inkscape:zoom="1.1527885"
     inkscape:cx="588.13912"
     inkscape:cy="300.57552"
     inkscape:window-width="2560"
     inkscape:window-height="1369"
     inkscape:window-x="1072"
     inkscape:window-y="328"
     inkscape:window-maximized="1"
     inkscape:current-layer="layer1"
     inkscape:export-bgcolor="#ffffff00" />
  <defs
     id="defs1">
    <linearGradient
       id="linearGradient28">
      <stop
         style="stop-color:#fc6900;stop-opacity:1;"
         offset="0"
         id="stop27" />
      <stop
         style="stop-color:#fc6900;stop-opacity:0.40000001;"
         offset="1"
         id="stop28" />
    </linearGradient>
    <linearGradient
       id="linearGradient26">
      <stop
         style="stop-color:#f06400;stop-opacity:1;"
         offset="0"
         id="stop25" />
      <stop
         style="stop-color:#fc6900;stop-opacity:0.40000001;"
         offset="1"
         id="stop26" />
    </linearGradient>
    <linearGradient
       id="linearGradient24">
      <stop
         style="stop-color:#f06400;stop-opacity:1;"
         offset="0"
         id="stop23" />
      <stop
         style="stop-color:#fc6900;stop-opacity:0.40000001;"
         offset="1"
         id="stop24" />
    </linearGradient>
    <linearGradient
       id="linearGradient22">
      <stop
         style="stop-color:#f06400;stop-opacity:1;"
         offset="0"
         id="stop21" />
      <stop
         style="stop-color:#fc6900;stop-opacity:0.40000001;"
         offset="1"
         id="stop22" />
    </linearGradient>
    <linearGradient
       id="linearGradient20">
      <stop
         style="stop-color:#f06400;stop-opacity:1;"
         offset="0"
         id="stop19" />
      <stop
         style="stop-color:#fc6900;stop-opacity:0.40000001;"
         offset="1"
         id="stop20" />
    </linearGradient>
    <linearGradient
       id="linearGradient18">
      <stop
         style="stop-color:#f06400;stop-opacity:1;"
         offset="0"
         id="stop17" />
      <stop
         style="stop-color:#fc6900;stop-opacity:0.40000001;"
         offset="1"
         id="stop18" />
    </linearGradient>
    <linearGradient
       id="linearGradient14">
      <stop
         style="stop-color:#fc6900;stop-opacity:1;"
         offset="0"
         id="stop14" />
      <stop
         style="stop-color:#fc6900;stop-opacity:0.40000001;"
         offset="1"
         id="stop15" />
    </linearGradient>
    <linearGradient
       id="linearGradient12">
      <stop
         style="stop-color:#fc6900;stop-opacity:1;"
         offset="0"
         id="stop12" />
      <stop
         style="stop-color:#fc6900;stop-opacity:0.5;"
         offset="0.77550793"
         id="stop16" />
      <stop
         style="stop-color:#fc6900;stop-opacity:0.40000001;"
         offset="1"
         id="stop13" />
    </linearGradient>
    <linearGradient
       id="linearGradient9">
      <stop
         style="stop-color:#fc6900;stop-opacity:1;"
         offset="0"
         id="stop9" />
      <stop
         style="stop-color:#fc6900;stop-opacity:0;"
         offset="1"
         id="stop10" />
    </linearGradient>
    <linearGradient
       id="linearGradient2">
      <stop
         style="stop-color:#f06400;stop-opacity:1;"
         offset="0"
         id="stop2" />
      <stop
         style="stop-color:#fc6900;stop-opacity:0.40000001;"
         offset="1"
         id="stop3" />
    </linearGradient>
    <linearGradient
       xlink:href="#linearGradient22"
       id="linearGradient3"
       x1="89.877007"
       y1="88.668312"
       x2="99.45298"
       y2="525.15259"
       gradientUnits="userSpaceOnUse"
       gradientTransform="matrix(0.88444831,0,0,0.88444831,54.699046,9.7872767)" />
    <linearGradient
       xlink:href="#linearGradient24"
       id="linearGradient4"
       gradientUnits="userSpaceOnUse"
       x1="94.812149"
       y1="105.9413"
       x2="115.01208"
       y2="517.50232"
       gradientTransform="matrix(0.88444831,0,0,0.88444831,81.7226,2.4523117)" />
    <linearGradient
       xlink:href="#linearGradient26"
       id="linearGradient5"
       gradientUnits="userSpaceOnUse"
       gradientTransform="matrix(0.88444831,0,0,0.88444831,104.88565,1.6802107)"
       x1="137.38445"
       y1="96.581879"
       x2="50.450817"
       y2="446.18875" />
    <linearGradient
       xlink:href="#linearGradient2"
       id="linearGradient6"
       gradientUnits="userSpaceOnUse"
       gradientTransform="matrix(0.88444831,0,0,0.88444831,127.66264,1.2941597)"
       x1="147.78134"
       y1="146.67749"
       x2="58.475544"
       y2="412.85526" />
    <linearGradient
       xlink:href="#linearGradient20"
       id="linearGradient7"
       gradientUnits="userSpaceOnUse"
       x1="107.01361"
       y1="241.84766"
       x2="207.72098"
       y2="574.40228"
       gradientTransform="matrix(0.88444831,0,0,0.88444831,128.51817,9.2499161)" />
    <linearGradient
       xlink:href="#linearGradient18"
       id="linearGradient8"
       gradientUnits="userSpaceOnUse"
       gradientTransform="matrix(0.88444831,0,0,0.88444831,163.63135,13.178305)"
       x1="87.274628"
       y1="223.21002"
       x2="232.77586"
       y2="559.82703" />
    <linearGradient
       xlink:href="#linearGradient9"
       id="linearGradient11"
       x1="290.93576"
       y1="267.78137"
       x2="291.72455"
       y2="289.62396"
       gradientUnits="userSpaceOnUse"
       gradientTransform="translate(569.1202,23.637695)" />
    <linearGradient
       xlink:href="#linearGradient12"
       id="linearGradient13"
       x1="341.40613"
       y1="228.31285"
       x2="352.0452"
       y2="412.44287"
       gradientUnits="userSpaceOnUse"
       gradientTransform="translate(549.83453)" />
    <linearGradient
       xlink:href="#linearGradient14"
       id="linearGradient15"
       x1="386.77667"
       y1="234.38063"
       x2="389.39563"
       y2="305.30499"
       gradientUnits="userSpaceOnUse"
       gradientTransform="translate(549.83453)" />
    <linearGradient
       xlink:href="#linearGradient28"
       id="linearGradient16"
       gradientUnits="userSpaceOnUse"
       x1="290.6084"
       y1="269.09082"
       x2="290.48996"
       y2="294.25363"
       gradientTransform="translate(646.13127,-55.710128)" />
    <linearGradient
       inkscape:collect="always"
       xlink:href="#linearGradient22"
       id="linearGradient1"
       gradientUnits="userSpaceOnUse"
       gradientTransform="matrix(0.59401614,0,0,0.59401614,540.08005,126.25435)"
       x1="89.877007"
       y1="88.668312"
       x2="99.45298"
       y2="525.15259" />
    <linearGradient
       inkscape:collect="always"
       xlink:href="#linearGradient24"
       id="linearGradient10"
       gradientUnits="userSpaceOnUse"
       gradientTransform="matrix(0.59401614,0,0,0.59401614,558.2297,121.32802)"
       x1="94.812149"
       y1="105.9413"
       x2="115.01208"
       y2="517.50232" />
    <linearGradient
       inkscape:collect="always"
       xlink:href="#linearGradient26"
       id="linearGradient17"
       gradientUnits="userSpaceOnUse"
       gradientTransform="matrix(0.59401614,0,0,0.59401614,573.78655,120.80945)"
       x1="137.38445"
       y1="96.581879"
       x2="50.450817"
       y2="446.18875" />
    <linearGradient
       inkscape:collect="always"
       xlink:href="#linearGradient2"
       id="linearGradient19"
       gradientUnits="userSpaceOnUse"
       gradientTransform="matrix(0.59401614,0,0,0.59401614,589.08411,120.55017)"
       x1="147.78134"
       y1="146.67749"
       x2="58.475544"
       y2="412.85526" />
    <linearGradient
       inkscape:collect="always"
       xlink:href="#linearGradient20"
       id="linearGradient21"
       gradientUnits="userSpaceOnUse"
       gradientTransform="matrix(0.59401614,0,0,0.59401614,589.6587,125.89344)"
       x1="107.01361"
       y1="241.84766"
       x2="207.72098"
       y2="574.40228" />
    <linearGradient
       inkscape:collect="always"
       xlink:href="#linearGradient18"
       id="linearGradient23"
       gradientUnits="userSpaceOnUse"
       gradientTransform="matrix(0.59401614,0,0,0.59401614,613.24153,128.53184)"
       x1="87.274628"
       y1="223.21002"
       x2="232.77586"
       y2="559.82703" />
    <linearGradient
       inkscape:collect="always"
       xlink:href="#linearGradient22"
       id="linearGradient25"
       gradientUnits="userSpaceOnUse"
       gradientTransform="matrix(0.59175573,-0.05177192,0.05177192,0.59175573,267.03896,145.09213)"
       x1="198.52133"
       y1="78.383644"
       x2="72.444565"
       y2="449.35672" />
    <linearGradient
       inkscape:collect="always"
       xlink:href="#linearGradient24"
       id="linearGradient27"
       gradientUnits="userSpaceOnUse"
       gradientTransform="matrix(0.59175573,-0.05177192,0.05177192,0.59175573,284.69019,138.60271)"
       x1="195.41893"
       y1="103.74891"
       x2="104.80788"
       y2="450.34995" />
    <linearGradient
       inkscape:collect="always"
       xlink:href="#linearGradient26"
       id="linearGradient29"
       gradientUnits="userSpaceOnUse"
       gradientTransform="matrix(0.59175573,-0.05177192,0.05177192,0.59175573,300.14264,136.73024)"
       x1="158.17075"
       y1="202.48019"
       x2="149.62782"
       y2="350.33969" />
    <linearGradient
       inkscape:collect="always"
       xlink:href="#linearGradient2"
       id="linearGradient30"
       gradientUnits="userSpaceOnUse"
       gradientTransform="matrix(0.59175573,-0.05177192,0.05177192,0.59175573,315.3594,135.13868)"
       x1="130.37051"
       y1="236.77374"
       x2="124.68629"
       y2="305.21344" />
    <linearGradient
       inkscape:collect="always"
       xlink:href="#linearGradient20"
       id="linearGradient31"
       gradientUnits="userSpaceOnUse"
       gradientTransform="matrix(0.59175573,-0.05177192,0.05177192,0.59175573,316.39749,140.41153)"
       x1="148.75534"
       y1="133.35732"
       x2="191.74306"
       y2="466.75739" />
    <linearGradient
       inkscape:collect="always"
       xlink:href="#linearGradient18"
       id="linearGradient32"
       gradientUnits="userSpaceOnUse"
       gradientTransform="matrix(0.59175573,-0.05177192,0.05177192,0.59175573,340.12054,140.98451)"
       x1="128.84894"
       y1="101.91067"
       x2="189.37091"
       y2="469.47714" />
    <linearGradient
       inkscape:collect="always"
       xlink:href="#linearGradient22"
       id="linearGradient45"
       gradientUnits="userSpaceOnUse"
       gradientTransform="matrix(0.59175573,-0.05177192,0.05177192,0.59175573,267.03896,145.09213)"
       x1="198.52133"
       y1="78.383644"
       x2="72.444565"
       y2="449.35672" />
    <linearGradient
       inkscape:collect="always"
       xlink:href="#linearGradient24"
       id="linearGradient46"
       gradientUnits="userSpaceOnUse"
       gradientTransform="matrix(0.59175573,-0.05177192,0.05177192,0.59175573,284.69019,138.60271)"
       x1="195.41893"
       y1="103.74891"
       x2="104.80788"
       y2="450.34995" />
    <linearGradient
       inkscape:collect="always"
       xlink:href="#linearGradient26"
       id="linearGradient47"
       gradientUnits="userSpaceOnUse"
       gradientTransform="matrix(0.59175573,-0.05177192,0.05177192,0.59175573,300.14264,136.73024)"
       x1="158.17075"
       y1="202.48019"
       x2="149.62782"
       y2="350.33969" />
    <linearGradient
       inkscape:collect="always"
       xlink:href="#linearGradient2"
       id="linearGradient48"
       gradientUnits="userSpaceOnUse"
       gradientTransform="matrix(0.59175573,-0.05177192,0.05177192,0.59175573,315.3594,135.13868)"
       x1="130.37051"
       y1="236.77374"
       x2="124.68629"
       y2="305.21344" />
    <linearGradient
       inkscape:collect="always"
       xlink:href="#linearGradient20"
       id="linearGradient49"
       gradientUnits="userSpaceOnUse"
       gradientTransform="matrix(0.59175573,-0.05177192,0.05177192,0.59175573,316.39749,140.41153)"
       x1="148.75534"
       y1="133.35732"
       x2="191.74306"
       y2="466.75739" />
    <linearGradient
       inkscape:collect="always"
       xlink:href="#linearGradient18"
       id="linearGradient50"
       gradientUnits="userSpaceOnUse"
       gradientTransform="matrix(0.59175573,-0.05177192,0.05177192,0.59175573,340.12054,140.98451)"
       x1="128.84894"
       y1="101.91067"
       x2="189.37091"
       y2="469.47714" />
    <linearGradient
       inkscape:collect="always"
       xlink:href="#linearGradient22"
       id="linearGradient51"
       gradientUnits="userSpaceOnUse"
       gradientTransform="matrix(0.59175573,0.05177192,-0.05177192,0.59175573,552.74802,120.88026)"
       x1="89.877007"
       y1="88.668312"
       x2="99.45298"
       y2="525.15259" />
    <linearGradient
       inkscape:collect="always"
       xlink:href="#linearGradient24"
       id="linearGradient52"
       gradientUnits="userSpaceOnUse"
       gradientTransform="matrix(0.59175573,0.05177192,-0.05177192,0.59175573,571.25796,117.55452)"
       x1="82.289978"
       y1="103.53215"
       x2="98.292259"
       y2="519.65015" />
    <linearGradient
       inkscape:collect="always"
       xlink:href="#linearGradient26"
       id="linearGradient53"
       gradientUnits="userSpaceOnUse"
       gradientTransform="matrix(0.59401614,0,0,0.59401614,578.36681,116.06344)"
       x1="131.61879"
       y1="80.741333"
       x2="141.78891"
       y2="161.08875" />
    <linearGradient
       inkscape:collect="always"
       xlink:href="#linearGradient2"
       id="linearGradient54"
       gradientUnits="userSpaceOnUse"
       gradientTransform="matrix(0.59401614,0,0,0.59401614,593.94491,114.14352)"
       x1="106.70992"
       y1="80.765991"
       x2="116.30734"
       y2="166.03503" />
    <linearGradient
       inkscape:collect="always"
       xlink:href="#linearGradient2"
       id="linearGradient61"
       gradientUnits="userSpaceOnUse"
       gradientTransform="matrix(0.59401614,0,0,0.59401614,592.21028,185.49574)"
       x1="104.82774"
       y1="73.12571"
       x2="113.46565"
       y2="186.71796" />
    <linearGradient
       inkscape:collect="always"
       xlink:href="#linearGradient26"
       id="linearGradient62"
       gradientUnits="userSpaceOnUse"
       gradientTransform="matrix(0.59401614,0,0,0.59401614,576.8624,184.52928)"
       x1="123.65395"
       y1="74.454506"
       x2="131.34232"
       y2="194.31277" />
    <linearGradient
       inkscape:collect="always"
       xlink:href="#linearGradient2"
       id="linearGradient63"
       gradientUnits="userSpaceOnUse"
       gradientTransform="matrix(0.59401614,0,0,0.59401614,602.45881,274.39821)"
       x1="110.72399"
       y1="56.047672"
       x2="120.37553"
       y2="120.81796" />
    <linearGradient
       inkscape:collect="always"
       xlink:href="#linearGradient26"
       id="linearGradient64"
       gradientUnits="userSpaceOnUse"
       gradientTransform="matrix(0.59401614,0,0,0.59401614,587.16125,274.65749)"
       x1="129.85486"
       y1="43.614166"
       x2="155.09465"
       y2="123.03458" />
  </defs>
  <g
     id="layer1">
    <circle
       style="display:none;fill:#ffffff;fill-opacity:1;fill-rule:nonzero;stroke:none;stroke-width:7.559;stroke-dasharray:none;stroke-opacity:1"
       id="path16"
       cx="254.32214"
       cy="255.55672"
       r="255.55672" />
    <g
       id="g33">
      <path
         style="display:inline;fill:url(#linearGradient3);fill-opacity:1;fill-rule:nonzero;stroke:none;stroke-width:6.68554;stroke-dasharray:none;stroke-opacity:1"
         d="m 115.57396,75.189763 c 32.93553,70.118087 22.53294,175.219267 15.87376,286.096727 11.35086,8.60257 20.02554,19.88133 28.51969,31.34061 -4.89127,-130.26213 -1.15112,-212.43168 -20.39472,-331.839043 -3.37501,7.085007 -14.1701,10.936973 -23.99873,14.401706 z"
         id="path1"
         sodipodi:nodetypes="ccccc" />
      <path
         style="display:inline;fill:url(#linearGradient4);fill-opacity:1;fill-rule:nonzero;stroke:none;stroke-width:6.68554;stroke-dasharray:none;stroke-opacity:1"
         d="m 155.22805,67.120749 c 5.47153,85.295051 11.86322,204.341581 19.96099,283.581611 5.87358,-5.99975 12.2816,-11.83754 22.8877,-16.40319 C 184.18989,262.57491 172.75629,215.41891 174.29345,81.322286 163.1594,76.09407 157.95695,71.479467 155.22805,67.120749 Z"
         id="path3"
         sodipodi:nodetypes="ccccc" />
      <path
         style="display:inline;fill:url(#linearGradient5);fill-opacity:1;fill-rule:nonzero;stroke:none;stroke-width:6.68554;stroke-dasharray:none;stroke-opacity:1"
         d="m 252.2631,57.876671 c -11.87625,45.385359 -49.69509,97.737859 -69.20218,117.687089 0.59048,6.91693 0.9471,13.83385 0.81946,20.75078 61.64662,-76.8519 88.31708,-120.168956 94.73425,-154.681524 -9.31953,8.731212 -17.26542,13.478827 -26.35153,16.243655 z"
         id="path4"
         sodipodi:nodetypes="ccccc" />
      <path
         style="display:inline;fill:url(#linearGradient6);fill-opacity:1;fill-rule:nonzero;stroke:none;stroke-width:6.68554;stroke-dasharray:none;stroke-opacity:1"
         d="M 288.40935,55.986823 C 274.60284,104.73799 211.51508,176.37087 184.25927,204.82128 c 5.31498,0.0849 10.62996,0.54109 15.94494,1.9573 30.84884,-38.81863 98.95695,-118.011803 101.70804,-133.139572 -6.56961,-5.305457 -10.722,-10.177793 -13.5029,-17.652185 z"
         id="path5"
         sodipodi:nodetypes="ccccc" />
      <path
         style="display:inline;fill:url(#linearGradient7);fill-opacity:1;fill-rule:nonzero;stroke:none;stroke-width:6.68554;stroke-dasharray:none;stroke-opacity:1"
         d="m 212.27913,220.37684 c 28.43677,53.04843 42.00651,91.96593 73.18229,240.39886 7.67094,2.18634 17.05747,7.80386 28.22029,16.97396 -37.72666,-138.72359 -58.78613,-206.90898 -97.74129,-278.59924 -0.32427,7.13522 -1.80314,14.19346 -3.66129,21.22642 z"
         id="path6"
         sodipodi:nodetypes="ccccc" />
      <path
         style="display:inline;fill:url(#linearGradient8);fill-opacity:1;fill-rule:nonzero;stroke:none;stroke-width:6.68554;stroke-dasharray:none;stroke-opacity:1"
         d="m 223.63548,189.23321 c 30.82639,62.86666 63.11266,134.36373 119.83946,286.77738 2.60066,-8.85676 4.26707,-17.5578 10.16137,-26.9635 C 292.4099,312.34548 266.50069,249.12051 239.51014,194.34005 c -5.62517,-0.86824 -10.8659,-2.69758 -15.87466,-5.10684 z"
         id="path7"
         sodipodi:nodetypes="ccccc" />
    </g>
    <g
       id="g34"
       transform="rotate(2.3504253,1337.9829,-576.45168)">
      <path
         style="display:inline;fill:url(#linearGradient1);fill-opacity:1;fill-rule:nonzero;stroke:none;stroke-width:4.49016;stroke-dasharray:none;stroke-opacity:1"
         d="m 580.96506,170.18019 c 22.12027,47.09294 15.13365,117.68134 10.66119,192.14923 7.6235,5.77769 13.44962,13.35277 19.15449,21.04909 -3.28509,-87.48709 -0.77312,-142.67408 -13.69757,-222.87084 -2.26674,4.75845 -9.51697,7.34552 -16.11811,9.67252 z"
         id="path1-5"
         sodipodi:nodetypes="ccccc" />
      <path
         style="display:inline;fill:url(#linearGradient10);fill-opacity:1;fill-rule:nonzero;stroke:none;stroke-width:4.49016;stroke-dasharray:none;stroke-opacity:1"
         d="m 607.59767,164.76085 c 3.67481,57.28615 7.96762,137.24057 13.40627,190.46002 3.94483,-4.02957 8.24861,-7.95036 15.37191,-11.01676 -9.32673,-48.17169 -17.0058,-79.84276 -15.97341,-169.90518 -7.47789,-3.51139 -10.97197,-6.61066 -12.80477,-9.53808 z"
         id="path3-6"
         sodipodi:nodetypes="ccccc" />
      <path
         style="display:inline;fill:url(#linearGradient17);fill-opacity:1;fill-rule:nonzero;stroke:none;stroke-width:4.49016;stroke-dasharray:none;stroke-opacity:1"
         d="m 672.76868,158.55231 c -7.97637,30.48187 -33.37639,65.64302 -46.4778,79.04139 0.39658,4.64557 0.63609,9.29114 0.55037,13.93671 41.40331,-51.61552 59.31581,-80.70827 63.62573,-103.88772 -6.25921,5.86409 -11.59586,9.0527 -17.6983,10.90962 z"
         id="path4-1"
         sodipodi:nodetypes="ccccc" />
      <path
         style="display:inline;fill:url(#linearGradient19);fill-opacity:1;fill-rule:nonzero;stroke:none;stroke-width:4.49016;stroke-dasharray:none;stroke-opacity:1"
         d="m 697.04534,157.28304 c -9.27277,32.74243 -51.64398,80.85274 -69.94962,99.9607 3.56966,0.057 7.13933,0.3634 10.70899,1.31456 20.7188,-26.07149 66.4618,-79.25947 68.3095,-89.41963 -4.41231,-3.56327 -7.20115,-6.83565 -9.06887,-11.85563 z"
         id="path5-3"
         sodipodi:nodetypes="ccccc" />
      <path
         style="display:inline;fill:url(#linearGradient21);fill-opacity:1;fill-rule:nonzero;stroke:none;stroke-width:4.49016;stroke-dasharray:none;stroke-opacity:1"
         d="m 645.91451,267.69121 c 19.0988,35.62857 28.21255,61.76647 49.15093,161.45749 5.15199,1.4684 11.4562,5.24125 18.95341,11.40011 -25.33811,-93.17 -39.48214,-138.9649 -65.64533,-187.11376 -0.21779,4.79218 -1.21103,9.53266 -2.45901,14.25616 z"
         id="path6-7"
         sodipodi:nodetypes="ccccc" />
      <path
         style="display:inline;fill:url(#linearGradient23);fill-opacity:1;fill-rule:nonzero;stroke:none;stroke-width:4.49016;stroke-dasharray:none;stroke-opacity:1"
         d="m 653.5417,246.77442 c 20.70372,42.22272 42.38794,90.24182 80.48698,192.60639 1.74666,-5.94841 2.86586,-11.79223 6.82461,-18.10932 -41.12108,-91.81199 -58.52231,-134.27536 -76.6498,-171.06719 -3.77799,-0.58313 -7.29779,-1.81176 -10.66179,-3.42988 z"
         id="path7-0"
         sodipodi:nodetypes="ccccc" />
    </g>
    <g
       id="g34-9"
       transform="rotate(2.3504253,1170.2458,2758.218)">
      <path
         style="display:inline;fill:url(#linearGradient51);fill-opacity:1;fill-rule:nonzero;stroke:none;stroke-width:4.49016;stroke-dasharray:none;stroke-opacity:1"
         d="m 592.55677,171.71412 c 7.69644,31.17474 9.18315,97.38413 -1.7626,171.17885 4.6009,2.98176 9.58404,7.07372 12.49888,10.69174 4.35241,-87.44049 1.01449,-173.8363 6.54354,-194.99629 -2.67284,4.54278 -10.50099,11.38288 -17.27982,13.1257 z"
         id="path1-5-3"
         sodipodi:nodetypes="ccccc" />
      <path
         style="display:inline;fill:url(#linearGradient52);fill-opacity:1;fill-rule:nonzero;stroke:none;stroke-width:4.49016;stroke-dasharray:none;stroke-opacity:1"
         d="m 616.26399,163.57169 c -8.70759,50.90668 -5.88287,142.98793 -5.10329,196.47888 3.72672,-4.55664 9.63401,-7.31447 12.76263,-7.54165 -3.46727,-44.1207 -10.23942,-153.73005 2.22248,-181.48244 -3.48791,-1.48428 -8.19092,-4.31155 -9.88182,-7.45479 z"
         id="path3-6-2"
         sodipodi:nodetypes="ccccc" />
      <path
         style="display:inline;fill:url(#linearGradient53);fill-opacity:1;fill-rule:nonzero;stroke:none;stroke-width:4.49016;stroke-dasharray:none;stroke-opacity:1"
         d="m 681.67301,153.83496 c -9.94153,10.00654 -46.4534,19.13102 -52.53051,17.80512 -1.34702,2.69402 -2.44312,6.771 -2.88319,10.03507 8.25249,-2.30549 51.697,-14.90684 67.7584,-19.41255 -5.20907,-2.09355 -9.5838,-4.6313 -12.3447,-8.42764 z"
         id="path4-1-9"
         sodipodi:nodetypes="ccccc" />
      <path
         style="display:inline;fill:url(#linearGradient54);fill-opacity:1;fill-rule:nonzero;stroke:none;stroke-width:4.49016;stroke-dasharray:none;stroke-opacity:1"
         d="m 696.25846,167.41634 c -22.57198,4.92288 -65.08641,16.76141 -70.82513,19.62848 -0.56609,2.61531 -0.89615,6.73329 -0.92735,9.54414 13.77484,-8.29019 59.90993,-19.7672 69.44941,-18.27194 -0.0259,-4.48661 1.13833,-8.70143 2.30307,-10.90068 z"
         id="path5-3-1"
         sodipodi:nodetypes="ccccc" />
      <path
         style="display:inline;fill:url(#linearGradient62);fill-opacity:1;fill-rule:nonzero;stroke:none;stroke-width:4.49016;stroke-dasharray:none;stroke-opacity:1"
         d="m 672.31449,231.24191 c -9.93724,8.24139 -41.70831,12.56362 -48.49287,11.66907 -0.0858,2.37366 0.061,6.36625 0.22866,8.79802 7.27742,-2.26546 40.41212,-10.51233 56.33917,-14.55209 -3.46002,-1.15657 -5.50834,-2.24363 -8.07496,-5.915 z"
         id="path60"
         sodipodi:nodetypes="ccccc" />
      <path
         style="display:inline;fill:url(#linearGradient61);fill-opacity:1;fill-rule:nonzero;stroke:none;stroke-width:4.49016;stroke-dasharray:none;stroke-opacity:1"
         d="m 624.60676,258.14 c 0.17381,2.6677 0.32908,6.61558 0.4738,9.42577 13.77484,-8.29019 37.49919,-12.06259 47.03867,-10.56733 0.1358,-2.339 1.51389,-7.87898 3.38613,-10.47699 -9.6408,1.10778 -37.43523,5.77476 -50.8986,11.61855 z"
         id="path61"
         sodipodi:nodetypes="ccccc" />
      <path
         style="display:inline;fill:url(#linearGradient64);fill-opacity:1;fill-rule:nonzero;stroke:none;stroke-width:4.49016;stroke-dasharray:none;stroke-opacity:1"
         d="m 690.27059,298.46889 c -5.94341,12.22996 -58.19764,20.86889 -64.33192,19.08491 0.0876,1.99094 0.2918,5.12593 0.41405,7.16981 8.25249,-2.30549 68.08563,-11.2774 84.14703,-15.78311 -8.23255,-0.97186 -18.0434,-5.73081 -20.22916,-10.47161 z"
         id="path62"
         sodipodi:nodetypes="ccccc" />
      <path
         style="display:inline;fill:url(#linearGradient63);fill-opacity:1;fill-rule:nonzero;stroke:none;stroke-width:4.49016;stroke-dasharray:none;stroke-opacity:1"
         d="m 706.74144,315.78119 c -22.57198,4.92288 -74.45179,12.90127 -80.19051,15.76834 0.19489,2.08584 0.54682,7.10204 0.82005,9.07714 13.77484,-8.29019 67.50927,-15.94919 76.18445,-3.7831 -0.0259,-4.48661 1.01906,-18.97547 3.18601,-21.06238 z"
         id="path63"
         sodipodi:nodetypes="ccccc" />
    </g>
    <g
       id="g32"
       transform="translate(-37.672619,-32.837288)">
      <path
         style="display:inline;fill:url(#linearGradient25);fill-opacity:1;fill-rule:nonzero;stroke:none;stroke-width:4.49016;stroke-dasharray:none;stroke-opacity:1"
         d="m 382.22882,180.59773 c 5.35371,25.97655 -19.44842,122.76338 -43.8185,157.2943 2.72888,5.98233 7.01283,15.52806 9.94148,21.88637 18.8303,-44.54447 53.18222,-164.55465 46.94445,-190.25853 -3.88852,6.19436 -6.69422,8.1844 -13.06743,11.07786 z"
         id="path1-5-9"
         sodipodi:nodetypes="ccccc" />
      <path
         style="display:inline;fill:url(#linearGradient27);fill-opacity:1;fill-rule:nonzero;stroke:none;stroke-width:4.49016;stroke-dasharray:none;stroke-opacity:1"
         d="m 402.54901,173.43177 c 1.90518,49.28362 -36.37482,151.5964 -46.6775,197.86584 7.45659,-7.30966 17.28129,-14.06421 23.03267,-12.63855 -1.92085,-36.86756 25.55241,-136.37593 36.52735,-177.43294 -5.22783,-1.32587 -8.23611,-3.08533 -12.88252,-7.79435 z"
         id="path3-6-8"
         sodipodi:nodetypes="ccccc" />
      <path
         style="display:inline;fill:url(#linearGradient29);fill-opacity:1;fill-rule:nonzero;stroke:none;stroke-width:4.49016;stroke-dasharray:none;stroke-opacity:1"
         d="m 415.45032,271.23647 c -1.43959,1.2182 -10.34196,3.84282 -20.06109,3.91643 -0.78781,4.03956 -1.40746,6.52506 -2.09141,10.24765 12.22427,-7.50464 22.11864,-6.90888 23.59767,-6.63704 -0.39201,-2.33485 -0.91404,-5.05521 -1.44517,-7.52704 z"
         id="path4-1-1"
         sodipodi:nodetypes="ccccc" />
      <path
         style="display:inline;fill:url(#linearGradient30);fill-opacity:1;fill-rule:nonzero;stroke:none;stroke-width:4.49016;stroke-dasharray:none;stroke-opacity:1"
         d="m 417.77969,283.77489 c -5.7296,-0.91243 -10.89117,-1.08375 -25.55279,6.95528 -0.52348,2.82419 -1.15248,6.30874 -1.71789,9.32007 16.67158,-11.08492 21.667,-10.13037 28.73151,-7.85728 -0.41847,-2.57204 -1.00425,-6.09044 -1.46083,-8.41807 z"
         id="path5-3-0"
         sodipodi:nodetypes="ccccc" />
      <path
         style="display:inline;fill:url(#linearGradient31);fill-opacity:1;fill-rule:nonzero;stroke:none;stroke-width:4.49016;stroke-dasharray:none;stroke-opacity:1"
         d="m 407.77966,225.34296 c 7.58074,25.86548 25.60036,113.18528 22.58934,126.00792 6.41563,0.14306 13.76055,6.35879 21.62087,13.70068 -13.45288,-30.17579 -31.56845,-120.89219 -41.0888,-151.59848 -1.3737,4.39192 -2.00059,7.74298 -3.12141,11.88988 z"
         id="path6-7-6"
         sodipodi:nodetypes="ccccc" />
      <path
         style="display:inline;fill:url(#linearGradient32);fill-opacity:1;fill-rule:nonzero;stroke:none;stroke-width:4.49016;stroke-dasharray:none;stroke-opacity:1"
         d="m 413.07149,206.37281 c 5.73112,17.06549 31.61052,128.55252 52.2089,160.51262 0.61188,-5.61571 2.60495,-10.26404 5.66594,-12.72965 -19.93818,-20.44228 -41.64612,-116.5305 -54.53688,-160.38975 -1.28983,4.57632 -2.07706,7.74935 -3.33796,12.60678 z"
         id="path7-0-5"
         sodipodi:nodetypes="ccccc" />
    </g>
    <g
       id="g35"
       transform="translate(-20.548503)">
      <circle
         style="fill:url(#linearGradient11);fill-rule:nonzero;stroke:none;stroke-width:7.559;stroke-dasharray:none;stroke-opacity:1"
         id="path8"
         cx="860.0166"
         cy="297.55865"
         r="6.9444757" />
      <path
         style="fill:url(#linearGradient13);fill-rule:nonzero;stroke:none;stroke-width:7.559;stroke-dasharray:none;stroke-opacity:1"
         d="m 920.86132,214.4697 c -41.29327,-1.0584 -38.49379,23.46906 -36.27334,50.30754 l -13.46666,3.98722 c -2.02289,3.49929 -4.12368,5.20702 -6.21674,7.09236 l 20.37235,-2.15728 c 4.30302,34.38136 4.83479,37.2305 6.87413,115.1007 5.58279,-10.14526 6.82203,-19.27702 17.87672,-30.69905 -8.62459,-32.6505 -12.75984,-58.42631 -15.07247,-85.62072 l 13.11281,-0.35837 c 1.2128,-3.93031 1.2503,-5.60041 4.14985,-12.77446 l -18.21051,4.08725 c -1.35403,-19.09706 -4.02135,-38.40169 20.12308,-35.71999 1.79308,-4.95569 3.9121,-9.52024 6.73078,-13.2452 z"
         id="path11"
         sodipodi:nodetypes="ccccccccccccc" />
      <path
         style="fill:url(#linearGradient15);fill-rule:nonzero;stroke:none;stroke-width:7.559;stroke-dasharray:none;stroke-opacity:1"
         d="m 931.52957,236.48285 c 1.90531,16.53159 3.12468,33.06318 1.56836,49.59477 2.5854,-3.73303 4.87292,-7.65561 8.52647,-10.70891 -1.02415,-13.50396 -0.0496,-25.00924 0.25569,-37.18377 z"
         id="path12"
         sodipodi:nodetypes="ccccc" />
      <circle
         style="fill:url(#linearGradient16);fill-opacity:1;fill-rule:nonzero;stroke:none;stroke-width:7.559;stroke-dasharray:none;stroke-opacity:1"
         id="circle15"
         cx="937.02765"
         cy="218.21083"
         r="6.9444757" />
    </g>
    <g
       id="g40"
       transform="translate(76.805525,-32.837288)">
      <path
         style="display:inline;fill:url(#linearGradient45);fill-opacity:1;fill-rule:nonzero;stroke:none;stroke-width:4.49016;stroke-dasharray:none;stroke-opacity:1"
         d="m 382.22882,180.59773 c 5.35371,25.97655 -11.62773,106.43192 -35.99781,140.96284 1.88547,4.98557 6.01608,14.1096 9.17475,18.93444 17.96284,-44.54447 46.12826,-145.27126 39.89049,-170.97514 -3.88852,6.19436 -6.69422,8.1844 -13.06743,11.07786 z"
         id="path35"
         sodipodi:nodetypes="ccccc" />
      <path
         style="display:inline;fill:url(#linearGradient46);fill-opacity:1;fill-rule:nonzero;stroke:none;stroke-width:4.49016;stroke-dasharray:none;stroke-opacity:1"
         d="m 402.54901,173.43177 c 1.90518,49.28362 -36.37482,151.5964 -46.6775,197.86584 7.45659,-7.30966 17.28129,-14.06421 23.03267,-12.63855 -1.92085,-36.86756 25.55241,-136.37593 36.52735,-177.43294 -5.22783,-1.32587 -8.23611,-3.08533 -12.88252,-7.79435 z"
         id="path36"
         sodipodi:nodetypes="ccccc" />
      <path
         style="display:inline;fill:url(#linearGradient47);fill-opacity:1;fill-rule:nonzero;stroke:none;stroke-width:4.49016;stroke-dasharray:none;stroke-opacity:1"
         d="m 415.45032,271.23647 c -1.43959,1.2182 -10.34196,3.84282 -20.06109,3.91643 -0.78781,4.03956 -1.40746,6.52506 -2.09141,10.24765 12.22427,-7.50464 22.11864,-6.90888 23.59767,-6.63704 -0.39201,-2.33485 -0.91404,-5.05521 -1.44517,-7.52704 z"
         id="path37"
         sodipodi:nodetypes="ccccc" />
      <path
         style="display:inline;fill:url(#linearGradient48);fill-opacity:1;fill-rule:nonzero;stroke:none;stroke-width:4.49016;stroke-dasharray:none;stroke-opacity:1"
         d="m 417.77969,283.77489 c -5.7296,-0.91243 -10.89117,-1.08375 -25.55279,6.95528 -0.52348,2.82419 -1.15248,6.30874 -1.71789,9.32007 16.67158,-11.08492 21.667,-10.13037 28.73151,-7.85728 -0.41847,-2.57204 -1.00425,-6.09044 -1.46083,-8.41807 z"
         id="path38"
         sodipodi:nodetypes="ccccc" />
      <path
         style="display:inline;fill:url(#linearGradient49);fill-opacity:1;fill-rule:nonzero;stroke:none;stroke-width:4.49016;stroke-dasharray:none;stroke-opacity:1"
         d="m 407.77966,225.34296 c 7.58074,25.86548 25.60036,113.18528 22.58934,126.00792 6.41563,0.14306 13.76055,6.35879 21.62087,13.70068 -13.45288,-30.17579 -31.56845,-120.89219 -41.0888,-151.59848 -1.3737,4.39192 -2.00059,7.74298 -3.12141,11.88988 z"
         id="path39"
         sodipodi:nodetypes="ccccc" />
      <path
         style="display:inline;fill:url(#linearGradient50);fill-opacity:1;fill-rule:nonzero;stroke:none;stroke-width:4.49016;stroke-dasharray:none;stroke-opacity:1"
         d="m 413.07149,206.37281 c 5.73112,17.06549 31.61052,128.55252 52.2089,160.51262 0.61188,-5.61571 2.60495,-10.26404 5.66594,-12.72965 -19.93818,-20.44228 -41.64612,-116.5305 -54.53688,-160.38975 -1.28983,4.57632 -2.07706,7.74935 -3.33796,12.60678 z"
         id="path40"
         sodipodi:nodetypes="ccccc" />
    </g>
  </g>
</svg>
